<svg xmlns="http://www.w3.org/2000/svg" xmlns:xlink="http://www.w3.org/1999/xlink" fill="none" version="1.1" width="18" height="18" viewBox="0 0 18 18"><defs><clipPath id="master_svg0_120_71986"><rect x="0" y="0" width="18" height="18" rx="0"/></clipPath></defs><g clip-path="url(#master_svg0_120_71986)"><g><path d="M15.4412,11.25C15.2574,11.25,15.1338,11.412651,15.1338,11.659639C15.1338,11.659639,15.1338,14.11345,15.1338,14.11345C15.1338,14.56325,14.8883,14.93072,14.5207,14.93072C14.5207,14.93072,3.47782,14.93072,3.47782,14.93072C3.140358,14.93072,2.864664,14.56325,2.864664,14.11345C2.864664,14.11345,2.864664,11.659639,2.864664,11.659639C2.864664,11.414659,2.742635,11.25,2.557332,11.25C2.372029,11.25,2.25,11.414659,2.25,11.659639C2.25,11.659639,2.25,14.11345,2.25,14.11345C2.25,15.01305,2.771259,15.75,3.47782,15.75C3.47782,15.75,14.5222,15.75,14.5222,15.75C15.1971,15.75,15.75,15.01305,15.75,14.11345C15.75,14.11345,15.75,11.659639,15.75,11.659639C15.7485,11.414659,15.6265,11.25,15.4412,11.25Z" fill="#60B8FF" fill-opacity="1"/><path d="M16.25,14.11345L16.25,11.659639L16.25,11.656567Q16.247799999999998,11.3073243,16.064500000000002,11.062887Q15.8297,10.75,15.4412,10.75Q15.0536,10.75,14.8191,11.061463Q14.6338,11.3075777,14.6338,11.659639L14.6338,14.11345Q14.6338,14.29583,14.5603,14.39733Q14.5361,14.43072,14.5207,14.43072L3.4852,14.43072Q3.46651,14.41984,3.44465,14.390699999999999Q3.3646599999999998,14.284089999999999,3.3646599999999998,14.11345L3.3646599999999998,11.659639Q3.3646599999999998,11.3093003,3.180942,11.063561Q2.946516,10.75,2.557332,10.75Q2.1681478,10.75,1.933722,11.063561Q1.75,11.3093004,1.75,11.659639L1.75,14.11345Q1.75,14.95988,2.196437,15.5657Q2.7007149999999998,16.25,3.47782,16.25L14.5222,16.25Q15.2783,16.25,15.7891,15.56914Q16.25,14.95486,16.25,14.11345Z" fill-rule="evenodd" fill="#60B8FF" fill-opacity="1"/></g><g><path d="M8.20473,12.3221C8.43215,12.608,8.71677,12.75,9,12.75C9.28462,12.75,9.59715,12.608,9.79527,12.3221C9.79527,12.3221,12.66524,8.71473,12.66524,8.71473C12.77825,8.57268,12.77825,8.35698,12.66524,8.214929999999999C12.55223,8.07288,12.38062,8.07288,12.2676,8.214929999999999C12.2676,8.214929999999999,9.397639999999999,11.8205,9.397639999999999,11.8205C9.36973,11.8556,9.312529999999999,11.8924,9.28463,11.9275C9.28463,11.9275,9.28463,1.857755,9.28463,1.857755C9.28463,1.643803,9.17161,1.5,9,1.5C8.82978,1.5,8.71538,1.64205,8.71538,1.857755C8.71538,1.857755,8.71538,11.9293,8.71538,11.9293C8.68747,11.8942,8.63027,11.8574,8.602360000000001,11.8223C8.602360000000001,11.8223,5.732397,8.214929999999999,5.732397,8.214929999999999C5.619384,8.07288,5.447772,8.07288,5.3347596,8.214929999999999C5.2217468,8.35698,5.2217468,8.57268,5.3347596,8.71473C5.3347596,8.71473,8.20473,12.3221,8.20473,12.3221Z" fill="#60B8FF" fill-opacity="1"/><path d="M4.75,8.46483Q4.75,8.78283,4.943483,9.026019999999999L7.81345,12.6334Q8.22629,13.1523,8.78463,13.2345L8.78463,13.3591L8.875440000000001,13.2449Q8.936869999999999,13.25,9,13.25Q9.06293,13.25,9.123709999999999,13.2456L9.21538,13.3608L9.21538,13.2363Q9.81747,13.1572,10.19606,12.6214L13.056519999999999,9.026019999999999Q13.25,8.78283,13.25,8.46483Q13.25,8.14683,13.056519999999999,7.90363Q12.82162,7.60839,12.46642,7.60839Q12.11122,7.60839,11.87633,7.90363L9.78463,10.53149L9.78463,1.857755Q9.78463,1.5228217,9.598469999999999,1.28802Q9.37013,1,9,1Q8.63147,1,8.40311,1.286027Q8.21537,1.5211766,8.21537,1.857755L8.21537,10.53277L6.123672,7.90363Q5.888781,7.60839,5.533578,7.60839Q5.1783754,7.60839,4.943483,7.90363Q4.75,8.14683,4.75,8.46483Z" fill-rule="evenodd" fill="#60B8FF" fill-opacity="1"/></g></g></svg>