<?xml version="1.0" encoding="UTF-8"?>
<!DOCTYPE svg PUBLIC "-//W3C//DTD SVG 1.1//EN" "http://www.w3.org/Graphics/SVG/1.1/DTD/svg11.dtd">
<svg xmlns="http://www.w3.org/2000/svg" version="1.1" width="168px" height="174px" style="shape-rendering:geometricPrecision; text-rendering:geometricPrecision; image-rendering:optimizeQuality; fill-rule:evenodd; clip-rule:evenodd" xmlns:xlink="http://www.w3.org/1999/xlink">
<g><path style="opacity:1" fill="#1d4e9e" d="M 93.5,173.5 C 92.5,173.5 91.5,173.5 90.5,173.5C 88.5389,171.037 86.3722,168.703 84,166.5C 83.501,162.179 83.3343,157.846 83.5,153.5C 50.7716,152.231 28.9382,136.231 18,105.5C 14.5894,104.707 11.0894,104.207 7.5,104C 4.98321,101.651 2.64988,99.1506 0.5,96.5C 2.64988,93.8494 4.98321,91.3494 7.5,89C 10.146,88.5026 12.8127,88.3359 15.5,88.5C 16.8647,55.7429 32.8647,33.7429 63.5,22.5C 64.329,17.5329 64.829,12.5329 65,7.5C 67.3906,4.40319 70.224,2.23652 73.5,1C 80.0219,5.46309 82.3553,11.6298 80.5,19.5C 112.964,21.1465 134.797,37.1465 146,67.5C 149.411,68.2931 152.911,68.7931 156.5,69C 159.167,71.6667 161.833,74.3333 164.5,77C 161.833,79.6667 159.167,82.3333 156.5,85C 153.854,85.4974 151.187,85.6641 148.5,85.5C 147.586,118.246 131.753,140.246 101,151.5C 100.667,156.5 100.333,161.5 100,166.5C 97.6278,168.703 95.4611,171.037 93.5,173.5 Z M 71.5,3.5 C 72.6623,22.6623 72.829,41.9956 72,61.5C 66.8333,66.6667 61.6667,71.8333 56.5,77C 47.1667,77.6667 37.8333,77.6667 28.5,77C 30.1667,75.3333 31.8333,73.6667 33.5,72C 40.5,71.6667 47.5,71.3333 54.5,71C 58.3333,67.1667 62.1667,63.3333 66,59.5C 66.3333,42.5 66.6667,25.5 67,8.5C 68.7073,6.96252 70.2073,5.29585 71.5,3.5 Z M 80.5,23.5 C 110.953,25.1884 131.286,40.1884 141.5,68.5C 131.161,68.6665 120.828,68.4998 110.5,68C 107.333,64.8333 104.167,61.6667 101,58.5C 100.667,51.5 100.333,44.5 100,37.5C 97.3333,34.8333 94.6667,32.1667 92,29.5C 89.3333,32.1667 86.6667,34.8333 84,37.5C 83.3333,46.5 83.3333,55.5 84,64.5C 90.8333,71.3333 97.6667,78.1667 104.5,85C 118.321,85.0176 131.987,85.6843 145.5,87C 143.225,116.376 128.392,136.543 101,147.5C 100.333,136.833 100.333,126.167 101,115.5C 104.5,112 108,108.5 111.5,105C 118.5,104.667 125.5,104.333 132.5,104C 134.833,101.667 137.167,99.3333 139.5,97C 136.833,94.3333 134.167,91.6667 131.5,89C 122.5,88.3333 113.5,88.3333 104.5,89C 97.6667,95.8333 90.8333,102.667 84,109.5C 83.5001,122.829 83.3334,136.163 83.5,149.5C 52.6407,148.626 32.3074,133.626 22.5,104.5C 32.8387,104.334 43.172,104.5 53.5,105C 57,108.5 60.5,112 64,115.5C 64.3333,122.833 64.6667,130.167 65,137.5C 67.3494,140.017 69.8494,142.35 72.5,144.5C 75.1506,142.35 77.6506,140.017 80,137.5C 80.6667,128.167 80.6667,118.833 80,109.5C 73.1667,102.667 66.3333,95.8333 59.5,89C 46.1708,88.5001 32.8375,88.3334 19.5,88.5C 20.6204,57.8943 35.4537,37.2277 64,26.5C 64.6667,36.8333 64.6667,47.1667 64,57.5C 60.5,61 57,64.5 53.5,68C 46.5,68.3333 39.5,68.6667 32.5,69C 29.8333,71.6667 27.1667,74.3333 24.5,77C 27.1667,79.6667 29.8333,82.3333 32.5,85C 41.5,85.6667 50.5,85.6667 59.5,85C 66.3333,78.1667 73.1667,71.3333 80,64.5C 80.4999,50.8374 80.6666,37.1707 80.5,23.5 Z M 92.5,33.5 C 94.1288,34.6253 95.6288,35.9586 97,37.5C 97.3333,44.5 97.6667,51.5 98,58.5C 101.465,62.9668 105.298,67.1334 109.5,71C 124.833,71.3333 140.167,71.6667 155.5,72C 157.167,73.6667 158.833,75.3333 160.5,77C 142.833,77.6667 125.167,77.6667 107.5,77C 102.667,72.1667 97.8333,67.3333 93,62.5C 92.5002,52.8391 92.3335,43.1724 92.5,33.5 Z M 81.5,71.5 C 87.4218,75.7513 92.7551,80.7513 97.5,86.5C 92.515,91.9853 87.3484,97.3187 82,102.5C 76.8333,97.3333 71.6667,92.1667 66.5,87C 71.7031,81.9646 76.7031,76.798 81.5,71.5 Z M 3.5,97.5 C 20.9952,96.3381 38.6619,96.1714 56.5,97C 61.6667,102.167 66.8333,107.333 72,112.5C 72.6667,121.833 72.6667,131.167 72,140.5C 70.3333,138.833 68.6667,137.167 67,135.5C 66.6667,128.5 66.3333,121.5 66,114.5C 62.1667,110.667 58.3333,106.833 54.5,103C 39.1667,102.667 23.8333,102.333 8.5,102C 6.96252,100.293 5.29585,98.7927 3.5,97.5 Z M 107.5,96.5 C 117.172,96.3335 126.839,96.5002 136.5,97C 134.833,98.6667 133.167,100.333 131.5,102C 124.167,102.333 116.833,102.667 109.5,103C 105.667,106.833 101.833,110.667 98,114.5C 97.6667,131.5 97.3333,148.5 97,165.5C 95.6667,166.833 94.3333,168.167 93,169.5C 92.3333,150.167 92.3333,130.833 93,111.5C 98.0365,106.631 102.87,101.631 107.5,96.5 Z"/></g>
<g><path style="opacity:1" fill="#1d4e9e" d="M 81.5,67.5 C 88.2982,73.7973 94.9648,80.2973 101.5,87C 95.3189,93.3481 88.9855,99.5148 82.5,105.5C 75.8333,99.5 69.5,93.1667 63.5,86.5C 69.5216,80.1462 75.5216,73.8129 81.5,67.5 Z M 81.5,71.5 C 76.7031,76.798 71.7031,81.9646 66.5,87C 71.6667,92.1667 76.8333,97.3333 82,102.5C 87.3484,97.3187 92.515,91.9853 97.5,86.5C 92.7551,80.7513 87.4218,75.7513 81.5,71.5 Z"/></g>
</svg>
