<?xml version="1.0" standalone="no"?><!DOCTYPE svg PUBLIC "-//W3C//DTD SVG 1.1//EN" "http://www.w3.org/Graphics/SVG/1.1/DTD/svg11.dtd"><svg t="1778823740321" class="icon" viewBox="0 0 1024 1024" version="1.1" xmlns="http://www.w3.org/2000/svg" p-id="5721" xmlns:xlink="http://www.w3.org/1999/xlink" width="200" height="200"><path d="M0 0h1024v1024H0V0z" fill="#202425" opacity=".01" p-id="5722"></path><path d="M136.533333 68.266667a34.133333 34.133333 0 0 1 34.133334-34.133334h682.666666a34.133333 34.133333 0 0 1 34.133334 34.133334v170.666666a34.133333 34.133333 0 0 1-34.133334 34.133334H170.666667a34.133333 34.133333 0 0 1-34.133334-34.133334V68.266667z" fill="#FFAA44" p-id="5723"></path><path d="M102.4 170.666667a34.133333 34.133333 0 0 1 34.133333-34.133334h750.933334a34.133333 34.133333 0 0 1 34.133333 34.133334v593.3056a34.133333 34.133333 0 0 1-18.875733 30.5152l-360.209067 180.1216a68.266667 68.266667 0 0 1-61.0304 0L121.275733 794.487467A34.133333 34.133333 0 0 1 102.4 763.972267V170.666667z" fill="#11AA66" p-id="5724"></path><path d="M496.605867 305.3568a17.066667 17.066667 0 0 1 30.788266 0L576.853333 408.917333a17.066667 17.066667 0 0 0 13.175467 9.557334l113.800533 15.018666a17.066667 17.066667 0 0 1 9.5232 29.2864l-83.2512 79.018667a17.066667 17.066667 0 0 0-5.051733 15.496533l20.923733 112.8448a17.066667 17.066667 0 0 1-24.917333 18.090667l-100.864-54.749867a17.066667 17.066667 0 0 0-16.315733 0l-100.864 54.749867a17.066667 17.066667 0 0 1-24.917334-18.090667l20.8896-112.8448a17.066667 17.066667 0 0 0-5.0176-15.496533l-83.217066-79.018667a17.066667 17.066667 0 0 1 9.489066-29.2864l113.800534-15.018666a17.066667 17.066667 0 0 0 13.175466-9.557334l49.425067-103.560533z" fill="#FFFFFF" p-id="5725"></path></svg>