<svg width="70" height="70" viewBox="0 0 70 70" fill="none" xmlns="http://www.w3.org/2000/svg">
<g id="queshengye_qingdengdai 1">
<path id="Vector" d="M7 63.25C7 64.1783 9.94999 65.0685 15.201 65.7249C20.452 66.3813 27.5739 66.75 35 66.75C42.4261 66.75 49.548 66.3813 54.799 65.7249C60.05 65.0685 63 64.1783 63 63.25C63 62.3217 60.05 61.4315 54.799 60.7751C49.548 60.1188 42.4261 59.75 35 59.75C27.5739 59.75 20.452 60.1188 15.201 60.7751C9.94999 61.4315 7 62.3217 7 63.25Z" fill="#4A68CC" fill-opacity="0.19"/>
<path id="Vector_2" d="M6.92844 55.8596C6.92844 56.4546 7.38344 56.9096 7.97844 56.9096C8.57344 56.9096 9.02844 56.4546 9.02844 55.8596C9.02844 55.2646 8.57344 54.8096 7.97844 54.8096C7.41844 54.8096 6.92844 55.2996 6.92844 55.8596ZM62.9984 57.6096C61.9484 57.8896 61.7034 58.0996 61.4234 59.1846C61.1434 58.1346 60.9334 57.8896 59.8484 57.6096C60.8984 57.3296 61.1434 57.0846 61.4234 56.0346C61.7034 57.0846 61.9134 57.3296 62.9984 57.6096ZM18.8984 9.34461C17.5684 9.69461 17.2884 9.97461 16.9034 11.3396C16.5534 10.0096 16.2734 9.72961 14.9084 9.34461C16.2384 8.99461 16.5184 8.71461 16.9034 7.34961C17.2884 8.67961 17.5684 8.95961 18.8984 9.34461ZM12.4584 52.3246C10.9884 52.7096 10.6734 53.0246 10.2884 54.4946C9.90344 53.0246 9.58844 52.7096 8.11844 52.3246C9.58844 51.9396 9.90344 51.6246 10.2884 50.1546C10.7084 51.6246 11.0234 51.9396 12.4584 52.3246ZM14.6984 13.4746C11.9684 14.1746 11.4084 14.7696 10.6734 17.4996C9.97344 14.7696 9.37844 14.2096 6.64844 13.4746C9.37844 12.7746 9.93844 12.1796 10.6734 9.44961C11.3734 12.1446 11.9684 12.7396 14.6984 13.4746Z" fill="#4A68CC" fill-opacity="0.62"/>
<path id="Vector_3" d="M51.9766 32.34V32.655L54.5316 35.105L64.5066 30.24L55.5116 36.015V38.85L56.9466 37.45V37.415L56.9816 37.45L58.4166 38.85L66.1516 29.435V29.085L51.9766 32.34Z" fill="#4A68CC" fill-opacity="0.7"/>
<path id="Vector_4" d="M37.8331 58L33.1599 55.4769V55.2476C33.6273 54.3301 37.5994 46.0727 37.1321 46.3021C36.6648 46.7608 33.8609 49.7427 31.758 52.7245L30.5897 54.3301C30.5897 54.3301 25.9166 51.1189 24.2809 49.2839C25.2156 47.9077 30.356 41.4853 30.356 41.4853L21.7107 46.5315C21.2434 46.0727 18.4395 43.0909 17.5049 41.4853C18.2058 40.7972 22.879 36.8979 22.879 36.8979L16.3366 39.1916L14 34.8336V34.6042C15.1683 34.3748 24.7483 32.5399 29.1878 29.3287H29.6551L42.9736 42.4028C42.9736 42.4028 43.2072 42.6322 42.9736 42.8615C42.5063 44.0084 38.7677 49.972 37.8331 58ZM55.1238 22.2182L46.7121 30.4755V30.7049C48.5814 33.9161 48.5814 37.586 45.7775 40.3385H45.5438L32.2253 27.2643V27.035C35.0292 24.2825 38.7677 24.2825 42.0389 26.1175H42.2726L50.6843 17.8601C51.8526 16.7133 53.9555 16.7133 55.1238 17.8601C56.2921 19.007 56.2921 21.0713 55.1238 22.2182Z" fill="#6584EB"/>
</g>
</svg>
