<?xml version="1.0" standalone="no"?><!DOCTYPE svg PUBLIC "-//W3C//DTD SVG 1.1//EN" "http://www.w3.org/Graphics/SVG/1.1/DTD/svg11.dtd"><svg t="1779239096961" class="icon" viewBox="0 0 1024 1024" version="1.1" xmlns="http://www.w3.org/2000/svg" p-id="8001" xmlns:xlink="http://www.w3.org/1999/xlink" width="200" height="200"><path d="M192.768 59.392l284.16-52.864a170.666667 170.666667 0 0 1 69.845333 1.578667l291.882667 67.84a170.666667 170.666667 0 0 1 132.010667 166.272v306.517333a279.765333 279.765333 0 0 1-32.896 131.626667l-6.954667 13.013333a664.149333 664.149333 0 0 1-397.354667 324.266667 66.432 66.432 0 0 1-42.410666-1.578667l-46.762667-17.749333a676.437333 676.437333 0 0 1-360.576-321.066667 270.592 270.592 0 0 1-30.378667-124.586667V227.2a170.666667 170.666667 0 0 1 139.434667-167.765333z" fill="#004898" p-id="8002" data-spm-anchor-id="a313x.search_index.0.i1.65803a81Ow2k8C" class="selected"></path><path d="M309.333333 552.96L501.333333 170.666667v245.76h192L501.333333 853.333333v-300.373333h-192z" fill="#FFFFFF" p-id="8003"></path></svg>