<?xml version="1.0" encoding="UTF-8"?>
<svg width="60px" height="60px" viewBox="0 0 60 60" version="1.1" xmlns="http://www.w3.org/2000/svg" xmlns:xlink="http://www.w3.org/1999/xlink">
    <title>智能助手</title>
    <defs>
        <rect id="path-1" x="0" y="0" width="1920" height="1126"></rect>
        <linearGradient x1="100%" y1="50%" x2="0%" y2="50%" id="linearGradient-3">
            <stop stop-color="#006BFD" offset="0%"></stop>
            <stop stop-color="#05D7F6" offset="100%"></stop>
        </linearGradient>
    </defs>
    <g id="页面-1" stroke="none" stroke-width="1" fill="none" fill-rule="evenodd">
        <g id="首页2.0" transform="translate(-1820, -1086)">
            <rect fill="#F7F8FA" x="0" y="0" width="1920" height="2230"></rect>
            <g id="编组" transform="translate(0, 21)">
                <mask id="mask-2" fill="white">
                    <use xlink:href="#path-1"></use>
                </mask>
                <g id="矩形"></g>
            </g>
            <g id="智能助手" transform="translate(1820, 1086)">
                <circle id="椭圆形" fill="url(#linearGradient-3)" cx="30" cy="30" r="30"></circle>
                <g id="38-客服" transform="translate(10, 10)" fill-rule="nonzero">
                    <rect id="矩形" fill="#000000" opacity="0" x="0" y="0" width="40" height="40"></rect>
                    <g id="robot-2-fill" transform="translate(2, 2)">
                        <rect id="矩形" fill="#000000" opacity="0" x="0" y="0" width="36" height="36"></rect>
                        <path d="M20.25,2.99998828 C20.25,3.66598828 19.9604883,4.26448828 19.5000117,4.67701172 L19.5000117,7.49998828 L27,7.49998828 C29.4852814,7.49998828 31.5,9.51470691 31.5,11.9999883 L31.5,27 C31.5,29.4852814 29.4852814,31.5 27,31.5 L9,31.5 C6.51471863,31.5 4.5,29.4852814 4.5,27 L4.5,11.9999883 C4.5,9.51470691 6.51471863,7.49998828 9,7.49998828 L16.4999883,7.49998828 L16.4999883,4.67701172 C15.7293629,3.98773375 15.5276676,2.8619861 16.0110489,1.94803315 C16.4944303,1.03408019 17.5384599,0.567185096 18.5419308,0.81621048 C19.5454018,1.06523586 20.2500078,1.9660794 20.25,2.99998828 Z M0,15.0000117 L2.99998828,15.0000117 L2.99998828,24.0000117 L0,24.0000117 L0,15.0000117 L0,15.0000117 Z M36,15.0000117 L33.0000117,15.0000117 L33.0000117,24.0000117 L36,24.0000117 L36,15.0000117 L36,15.0000117 Z M13.5,21.7500117 C14.7426407,21.7500117 15.75,20.7426524 15.75,19.5000117 C15.75,18.257371 14.7426407,17.2500117 13.5,17.2500117 C12.2573593,17.2500117 11.25,18.257371 11.25,19.5000117 C11.25,20.7426524 12.2573593,21.7500117 13.5,21.7500117 Z M24.75,19.5000117 C24.75,18.257371 23.7426407,17.2500117 22.5,17.2500117 C21.2573593,17.2500117 20.25,18.257371 20.25,19.5000117 C20.25,20.7426524 21.2573593,21.7500117 22.5,21.7500117 C23.7426407,21.7500117 24.75,20.7426524 24.75,19.5000117 Z" id="形状" fill="#FFFFFF"></path>
                    </g>
                </g>
            </g>
        </g>
    </g>
</svg>