<svg width="290" height="188" viewBox="0 0 290 188" fill="none" xmlns="http://www.w3.org/2000/svg">
<g id="Group 328">
<path id="Vector" d="M290 148C290 170.091 225.082 188 145 188C64.9183 188 0 170.091 0 148C0 125.909 64.9183 108 145 108C225.082 108 290 125.909 290 148Z" fill="url(#paint0_linear_425_195)"/>
<path id="Vector_2" d="M59.5459 19.1547C61.8209 15.2991 66.852 12.386 77.5857 14.4567C77.5857 14.4567 94.7286 -16.1279 121.603 11.674C121.603 11.674 137.638 7.84345 141.727 19.962C143.511 25.3318 140.745 31.1529 135.458 33.1585C121.673 38.4531 90.0633 47.6987 63.8705 33.6899C58.6389 30.8872 56.5243 24.2839 59.5459 19.1547Z" fill="url(#paint1_linear_425_195)"/>
<path id="Vector_3" d="M1.122 92.6581C2.96106 89.5445 7.02001 87.193 15.7042 88.8626C15.7042 88.8626 29.5447 64.1643 51.2376 86.6164C51.2376 86.6164 64.1661 83.5278 67.4885 93.3099C68.9116 97.6419 66.6767 102.33 62.4123 103.944C51.2827 108.216 25.7664 115.662 4.61971 104.37C0.390381 102.129 -1.31839 96.7995 1.122 92.6581Z" fill="url(#paint2_linear_425_195)"/>
<path id="Vector_4" d="M218.781 40.4341C220.685 37.3856 224.899 35.0843 233.914 36.7188C233.914 36.7188 248.276 12.5168 270.791 34.5177C270.791 34.5177 284.205 31.5094 287.653 41.0758C289.156 45.3076 286.816 49.9103 282.396 51.5097C270.871 55.7013 244.362 62.9965 222.419 51.9309C218.019 49.7147 216.25 44.4953 218.781 40.4341Z" fill="url(#paint3_linear_425_195)"/>
<path id="Vector_5" d="M177.24 125.953C177.24 125.953 185.141 107.775 202.77 101.13L206.565 104.379L205.003 100.129C205.003 100.129 217.689 94.749 223.23 100.566C226.342 103.83 221.257 113.243 209.137 124.728L205.596 123.246L207.518 126.785C207.518 126.785 199.142 139.128 186.576 138.594L181.311 132.828L177.24 125.953Z" fill="url(#paint4_linear_425_195)"/>
<g id="Vector_6">
<path d="M181.315 132.828C180.919 133.144 183.884 129.625 188.742 124.768C196.486 117.03 209.403 104.578 223.234 100.562" fill="url(#paint5_linear_425_195)"/>
<path d="M181.315 132.828C180.919 133.144 183.884 129.625 188.742 124.768C196.486 117.03 209.403 104.578 223.234 100.562" stroke="#AAD0FF" stroke-width="1.74" stroke-linecap="round"/>
</g>
<path id="Vector_7" d="M203.222 111.881C203.222 111.881 209.991 110.477 213.909 115.623" stroke="#AAD0FF" stroke-width="1.74" stroke-linecap="round"/>
<path id="Vector_8" d="M201.71 130.788C196.409 123.257 189.29 124.302 189.29 124.302" stroke="#AAD0FF" stroke-width="1.74" stroke-linecap="round"/>
<path id="Vector_9" d="M192.696 121.029C192.696 121.029 199.538 113.484 200.728 103.986" stroke="#AAD0FF" stroke-width="1.74" stroke-linecap="round"/>
<path id="Vector_10" d="M231.048 120.406C231.048 120.406 218.033 148.619 187.633 142.636L183.303 132.978C183.303 132.978 226.431 124.742 231.048 120.406Z" fill="#AAD0FF"/>
<path id="Vector_11" d="M183.302 132.977C183.302 132.977 193.617 124.104 211.499 123.266C211.499 123.266 225.287 123.459 231.048 120.399C231.048 120.399 222.567 127.654 209.197 127.711C209.197 127.711 210.215 128.945 218.587 128.323C218.587 128.323 204.611 138.356 186.526 136.852L183.302 132.977Z" fill="#63A6F9"/>
<path id="Vector_12" d="M192.385 36.6482H187.469V31.3736C187.469 30.5362 186.793 29.8594 185.956 29.8594C185.114 29.8594 184.437 30.5362 184.437 31.3736V36.6482H179.522C178.91 36.6482 178.414 37.1445 178.414 37.7562C178.414 38.3679 178.91 38.8643 179.522 38.8643H184.437V44.1389C184.437 44.9762 185.114 45.6531 185.956 45.6531C186.793 45.6531 187.469 44.9762 187.469 44.1389V38.8643H192.385C192.996 38.8643 193.492 38.3679 193.492 37.7562C193.492 37.1445 192.996 36.6482 192.385 36.6482Z" fill="#63A6F9"/>
<path id="Vector_13" d="M21.3589 84.5097C22.5114 84.5097 23.5487 85.2016 23.9947 86.2646C24.4357 87.3325 24.1901 88.5559 23.3783 89.3732C22.5615 90.1854 21.3388 90.4311 20.2715 89.9899C19.2091 89.5436 18.5176 88.5058 18.5176 87.3526C18.5226 85.7832 19.7904 84.5147 21.3589 84.5097ZM21.3589 81C18.7882 81 16.4681 82.5443 15.4859 84.9208C14.4987 87.2974 15.0449 90.035 16.8589 91.855C18.6779 93.67 21.414 94.2165 23.7892 93.2288C26.1645 92.2461 27.7079 89.9247 27.7079 87.3526C27.7079 83.8429 24.8666 81 21.3589 81Z" fill="#63A6F9"/>
<path id="Vector_14" d="M248.579 109.961C249.731 109.961 250.769 110.653 251.21 111.716C251.656 112.779 251.41 114.007 250.598 114.819C249.786 115.637 248.559 115.882 247.496 115.441C246.429 115 245.737 113.962 245.737 112.809C245.737 111.239 247.01 109.966 248.579 109.961ZM248.579 106.451C246.008 106.451 243.688 107.995 242.706 110.372C241.719 112.749 242.26 115.481 244.079 117.301C245.898 119.121 248.629 119.668 251.004 118.685C253.379 117.697 254.928 115.381 254.928 112.809C254.928 109.299 252.086 106.456 248.579 106.451Z" fill="#63A6F9"/>
<path id="Rectangle 408" d="M74.9722 81H148.861L161 120H66L74.9722 81Z" fill="white"/>
<path id="Vector_15" d="M149.989 78.4965H76.0228L61 106.3V141H165V106.3L149.989 78.4965ZM126.214 106.611C126.214 114.129 120.303 120.225 113 120.225C105.697 120.225 99.7856 114.129 99.7856 106.611H67.2015L79.2336 82.9431H146.755L158.787 106.611H126.214ZM111.795 50H116.327V66.8062H111.795V50ZM81.0367 58.3436L84.2415 55.0388L95.7657 66.9226L92.5609 70.2274L81.0367 58.3436ZM130.961 66.9302L142.485 55.0464L145.69 58.3512L134.166 70.2349L130.961 66.9302Z" fill="#63A6F9"/>
<path id="Vector_16" d="M147.855 79.3044H78.1561L64 104.969V137H162V104.969L147.855 79.3044ZM125.452 105.256C125.452 112.196 119.881 117.823 113 117.823C106.119 117.823 100.548 112.196 100.548 105.256H69.8437L81.1816 83.409H144.807L156.145 105.256H125.452ZM111.864 53H116.135V68.5134H111.864V53ZM82.8808 60.7018L85.9006 57.6512L96.76 68.6208L93.7401 71.6714L82.8808 60.7018ZM129.924 68.6278L140.784 57.6582L143.804 60.7088L132.944 71.6783L129.924 68.6278Z" fill="#92C1FC"/>
</g>
<defs>
<linearGradient id="paint0_linear_425_195" x1="145" y1="108" x2="145" y2="187.998" gradientUnits="userSpaceOnUse">
<stop stop-color="#92C1FC" stop-opacity="0.2"/>
<stop offset="0.649" stop-color="#187FC4" stop-opacity="0"/>
</linearGradient>
<linearGradient id="paint1_linear_425_195" x1="100.226" y1="-0.00325482" x2="100.226" y2="41.0754" gradientUnits="userSpaceOnUse">
<stop offset="0.03" stop-color="#92C1FC" stop-opacity="0.4"/>
<stop offset="0.25" stop-color="#92C1FC" stop-opacity="0.2"/>
<stop offset="0.8" stop-color="#187FC4" stop-opacity="0"/>
</linearGradient>
<linearGradient id="paint2_linear_425_195" x1="33.9645" y1="77.1903" x2="33.9645" y2="110.352" gradientUnits="userSpaceOnUse">
<stop offset="0.03" stop-color="#92C1FC" stop-opacity="0.4"/>
<stop offset="0.25" stop-color="#92C1FC" stop-opacity="0.2"/>
<stop offset="0.8" stop-color="#187FC4" stop-opacity="0"/>
</linearGradient>
<linearGradient id="paint3_linear_425_195" x1="252.866" y1="25.2822" x2="252.866" y2="57.772" gradientUnits="userSpaceOnUse">
<stop offset="0.03" stop-color="#92C1FC" stop-opacity="0.4"/>
<stop offset="0.25" stop-color="#92C1FC" stop-opacity="0.2"/>
<stop offset="0.8" stop-color="#187FC4" stop-opacity="0"/>
</linearGradient>
<linearGradient id="paint4_linear_425_195" x1="214.676" y1="106.927" x2="195.111" y2="121.639" gradientUnits="userSpaceOnUse">
<stop stop-color="#63A6F9"/>
<stop offset="1" stop-color="#92C1FC"/>
</linearGradient>
<linearGradient id="paint5_linear_425_195" x1="213.907" y1="105.91" x2="194.357" y2="120.626" gradientUnits="userSpaceOnUse">
<stop stop-color="#63A6F9"/>
<stop offset="1" stop-color="#92C1FC"/>
</linearGradient>
</defs>
</svg>
