<svg width="290" height="188" viewBox="0 0 290 188" fill="none" xmlns="http://www.w3.org/2000/svg">
<g id="Group 329">
<path id="Vector" d="M290 148C290 170.091 225.082 188 145 188C64.9183 188 0 170.091 0 148C0 125.909 64.9183 108 145 108C225.082 108 290 125.909 290 148Z" fill="url(#paint0_linear_425_217)"/>
<path id="Vector_2" d="M59.5459 19.1547C61.8209 15.2991 66.852 12.386 77.5857 14.4567C77.5857 14.4567 94.7286 -16.1279 121.603 11.674C121.603 11.674 137.638 7.84345 141.727 19.962C143.511 25.3318 140.745 31.1529 135.458 33.1585C121.673 38.4531 90.0633 47.6987 63.8705 33.6899C58.6389 30.8872 56.5243 24.2839 59.5459 19.1547Z" fill="url(#paint1_linear_425_217)"/>
<path id="Vector_3" d="M1.122 92.6581C2.96106 89.5445 7.02001 87.193 15.7042 88.8626C15.7042 88.8626 29.5447 64.1643 51.2376 86.6164C51.2376 86.6164 64.1661 83.5278 67.4885 93.3099C68.9116 97.6419 66.6767 102.33 62.4123 103.944C51.2827 108.216 25.7664 115.662 4.61971 104.37C0.390381 102.129 -1.31839 96.7995 1.122 92.6581Z" fill="url(#paint2_linear_425_217)"/>
<path id="Vector_4" d="M218.781 40.4341C220.685 37.3856 224.899 35.0843 233.914 36.7188C233.914 36.7188 248.276 12.5168 270.791 34.5177C270.791 34.5177 284.205 31.5094 287.653 41.0758C289.156 45.3076 286.816 49.9103 282.396 51.5097C270.871 55.7013 244.362 62.9965 222.419 51.9309C218.019 49.7147 216.25 44.4953 218.781 40.4341Z" fill="url(#paint3_linear_425_217)"/>
<path id="Vector_5" d="M194.004 128.944C194.004 128.944 200.419 114.185 214.734 108.789L217.814 111.427L216.546 107.977C216.546 107.977 226.847 103.608 231.345 108.331C233.873 110.982 229.744 118.624 219.903 127.949L217.028 126.746L218.588 129.62C218.588 129.62 211.787 139.642 201.585 139.209L197.309 134.527L194.004 128.944Z" fill="url(#paint4_linear_425_217)"/>
<g id="Vector_6">
<path d="M197.318 134.527C196.996 134.783 199.404 131.926 203.348 127.982C209.636 121.699 220.125 111.589 231.355 108.328" fill="url(#paint5_linear_425_217)"/>
<path d="M197.318 134.527C196.996 134.783 199.404 131.926 203.348 127.982C209.636 121.699 220.125 111.589 231.355 108.328" stroke="#AAD0FF" stroke-width="1.74" stroke-linecap="round"/>
</g>
<path id="Vector_7" d="M215.107 117.518C215.107 117.518 220.603 116.379 223.784 120.557" stroke="#AAD0FF" stroke-width="1.74" stroke-linecap="round"/>
<path id="Vector_8" d="M213.879 132.87C209.575 126.756 203.794 127.604 203.794 127.604" stroke="#AAD0FF" stroke-width="1.74" stroke-linecap="round"/>
<path id="Vector_9" d="M206.554 124.946C206.554 124.946 212.11 118.82 213.076 111.108" stroke="#AAD0FF" stroke-width="1.74" stroke-linecap="round"/>
<path id="Vector_10" d="M237.698 124.441C237.698 124.441 227.13 147.348 202.447 142.491L198.93 134.649C198.93 134.649 233.949 127.962 237.698 124.441Z" fill="#AAD0FF"/>
<path id="Vector_11" d="M198.93 134.647C198.93 134.647 207.306 127.443 221.825 126.762C221.825 126.762 233.02 126.919 237.698 124.434C237.698 124.434 230.811 130.325 219.955 130.371C219.955 130.371 220.782 131.373 227.58 130.868C227.58 130.868 216.232 139.015 201.548 137.794L198.93 134.647Z" fill="#63A6F9"/>
<path id="Vector_12" d="M192.385 36.6482H187.469V31.3736C187.469 30.5362 186.793 29.8594 185.956 29.8594C185.114 29.8594 184.437 30.5362 184.437 31.3736V36.6482H179.522C178.91 36.6482 178.414 37.1445 178.414 37.7562C178.414 38.3679 178.91 38.8643 179.522 38.8643H184.437V44.1389C184.437 44.9762 185.114 45.6531 185.956 45.6531C186.793 45.6531 187.469 44.9762 187.469 44.1389V38.8643H192.385C192.996 38.8643 193.492 38.3679 193.492 37.7562C193.492 37.1445 192.996 36.6482 192.385 36.6482Z" fill="#63A6F9"/>
<path id="Vector_13" d="M48.5151 107.49C49.6677 107.49 50.7049 108.182 51.1509 109.245C51.5919 110.313 51.3464 111.536 50.5346 112.354C49.7178 113.166 48.4951 113.412 47.4277 112.97C46.3654 112.524 45.6738 111.486 45.6738 110.333C45.6789 108.764 46.9467 107.495 48.5151 107.49ZM48.5151 103.98C45.9444 103.98 43.6243 105.525 42.6422 107.901C41.655 110.278 42.2012 113.015 44.0152 114.835C45.8342 116.651 48.5702 117.197 50.9455 116.209C53.3207 115.227 54.8641 112.905 54.8641 110.333C54.8641 106.823 52.0229 103.98 48.5151 103.98Z" fill="#63A6F9"/>
<path id="Vector_14" d="M248.579 109.961C249.731 109.961 250.769 110.653 251.21 111.716C251.656 112.779 251.41 114.007 250.598 114.819C249.786 115.637 248.559 115.882 247.496 115.441C246.429 115 245.737 113.962 245.737 112.809C245.737 111.239 247.01 109.966 248.579 109.961ZM248.579 106.451C246.008 106.451 243.688 107.995 242.706 110.372C241.719 112.749 242.26 115.481 244.079 117.301C245.898 119.121 248.629 119.668 251.004 118.685C253.379 117.697 254.928 115.381 254.928 112.809C254.928 109.299 252.086 106.456 248.579 106.451Z" fill="#63A6F9"/>
<g id="&#230;&#149;&#176;&#230;&#141;&#174;&#229;&#138;&#160;&#232;&#189;&#189; 1" clip-path="url(#clip0_425_217)">
<path id="Vector_15" d="M98 82.2867C98 86.0733 102.213 89.7067 109.717 92.3867C117.217 95.0667 124.057 96.57 134.667 96.57C145.277 96.57 155.45 95.0667 162.95 92.3867C170.45 89.7067 174.667 86.0733 174.667 82.2867C174.667 78.4967 170.453 74.8633 162.95 72.1867C155.45 69.5033 145.277 68 134.667 68C124.057 68 117.217 69.5067 109.717 72.1833C102.217 74.8667 98 78.5 98 82.2833V82.2867ZM98 85.1433C98 93.0333 112.577 99.43 134.667 99.43C156.757 99.43 174.667 93.03 174.667 85.1433V99.43C174.667 102.257 172.367 104.89 168.4 107.107C165.273 105.547 161.74 104.667 158 104.667C154.461 104.663 150.967 105.467 147.784 107.016C144.602 108.565 141.814 110.819 139.633 113.607C138.007 113.677 136.35 113.713 134.667 113.713C112.577 113.713 98 107.32 98 99.43V85.1433ZM137.673 116.533C136.683 116.557 135.68 116.57 134.667 116.57C112.577 116.57 98 110.177 98 102.287V116.57C98 124.463 112.577 130.857 134.667 130.857H134.84C134.219 125.901 135.213 120.877 137.673 116.53V116.533ZM135.373 133.713C136.806 139.373 140.306 144.291 145.183 147.5C141.833 147.827 138.307 148 134.667 148C112.577 148 98 141.603 98 133.713V119.433C98 127.323 112.577 133.717 134.667 133.717H135.37L135.373 133.713ZM174.667 111.667C173.482 110.458 172.17 109.38 170.753 108.453C173.26 106.587 174.667 104.493 174.667 102.283V111.667ZM178 128C178 133.304 175.893 138.391 172.142 142.142C168.391 145.893 163.304 148 158 148C152.696 148 147.609 145.893 143.858 142.142C140.107 138.391 138 133.304 138 128C138 122.696 140.107 117.609 143.858 113.858C147.609 110.107 152.696 108 158 108C163.304 108 168.391 110.107 172.142 113.858C175.893 117.609 178 122.696 178 128ZM170.313 115.7C167.78 113.17 158.717 115.497 153.887 120.333C153.344 120.874 152.84 121.454 152.38 122.067L149.657 121.193C149.534 121.154 149.403 121.154 149.281 121.195C149.159 121.236 149.054 121.315 148.98 121.42L144.777 127.42C144.723 127.497 144.687 127.586 144.674 127.679C144.66 127.772 144.669 127.868 144.699 127.957C144.73 128.046 144.78 128.127 144.848 128.193C144.915 128.259 144.997 128.308 145.087 128.337L150.82 130.19C151.243 131.283 151.92 132.3 152.82 133.197C153.713 134.09 154.72 134.763 155.813 135.19L157.663 140.92C157.692 141.009 157.741 141.09 157.806 141.157C157.872 141.223 157.952 141.274 158.041 141.303C158.13 141.333 158.224 141.341 158.317 141.327C158.409 141.313 158.497 141.278 158.573 141.223L164.59 137.013C164.695 136.94 164.774 136.834 164.815 136.712C164.856 136.591 164.856 136.459 164.817 136.337L163.943 133.64C164.52 133.207 165.103 132.707 165.687 132.123C170.513 127.29 172.953 118.337 170.313 115.703V115.7ZM161.663 124.39C160.949 123.677 160.548 122.71 160.547 121.701C160.547 120.692 160.947 119.724 161.66 119.01C162.373 118.296 163.34 117.895 164.349 117.894C165.358 117.893 166.326 118.294 167.04 119.007C167.754 119.72 168.155 120.687 168.156 121.696C168.157 122.705 167.756 123.673 167.043 124.387C166.33 125.101 165.363 125.502 164.354 125.503C163.345 125.503 162.377 125.103 161.663 124.39ZM151.657 134.357C151.57 134.271 151.485 134.184 151.4 134.097C150.597 133.267 149.983 132.633 148.693 133.923C147.27 135.347 145.56 138.577 146.497 139.517C147.437 140.457 150.67 138.747 152.093 137.323C153.383 136.03 152.747 135.413 151.913 134.61L151.657 134.36V134.357Z" fill="#8EBFFB"/>
<circle id="Ellipse 163" cx="158.002" cy="128" r="18.4" fill="#63A6F9"/>
<path id="Vector_16" d="M155.602 136.6C155.602 137.184 155.833 137.743 156.246 138.156C156.659 138.569 157.218 138.8 157.802 138.8C158.385 138.8 158.945 138.569 159.357 138.156C159.77 137.743 160.002 137.184 160.002 136.6C160.002 136.017 159.77 135.457 159.357 135.045C158.945 134.632 158.385 134.4 157.802 134.4C157.218 134.4 156.659 134.632 156.246 135.045C155.833 135.457 155.602 136.017 155.602 136.6Z" fill="white"/>
<path id="Vector_17" d="M160.803 116.914C160.803 115.305 159.547 114 158.003 114C156.459 114 155.203 115.305 155.203 116.91V116.914L156.253 130.627C156.275 131.609 157.049 132.4 158.003 132.4C158.957 132.4 159.727 131.609 159.753 130.627L160.803 116.914Z" fill="white"/>
</g>
</g>
<defs>
<linearGradient id="paint0_linear_425_217" x1="145" y1="108" x2="145" y2="187.998" gradientUnits="userSpaceOnUse">
<stop stop-color="#92C1FC" stop-opacity="0.2"/>
<stop offset="0.649" stop-color="#187FC4" stop-opacity="0"/>
</linearGradient>
<linearGradient id="paint1_linear_425_217" x1="100.226" y1="-0.00325482" x2="100.226" y2="41.0754" gradientUnits="userSpaceOnUse">
<stop offset="0.03" stop-color="#92C1FC" stop-opacity="0.4"/>
<stop offset="0.25" stop-color="#92C1FC" stop-opacity="0.2"/>
<stop offset="0.8" stop-color="#187FC4" stop-opacity="0"/>
</linearGradient>
<linearGradient id="paint2_linear_425_217" x1="33.9645" y1="77.1903" x2="33.9645" y2="110.352" gradientUnits="userSpaceOnUse">
<stop offset="0.03" stop-color="#92C1FC" stop-opacity="0.4"/>
<stop offset="0.25" stop-color="#92C1FC" stop-opacity="0.2"/>
<stop offset="0.8" stop-color="#187FC4" stop-opacity="0"/>
</linearGradient>
<linearGradient id="paint3_linear_425_217" x1="252.866" y1="25.2822" x2="252.866" y2="57.772" gradientUnits="userSpaceOnUse">
<stop offset="0.03" stop-color="#92C1FC" stop-opacity="0.4"/>
<stop offset="0.25" stop-color="#92C1FC" stop-opacity="0.2"/>
<stop offset="0.8" stop-color="#187FC4" stop-opacity="0"/>
</linearGradient>
<linearGradient id="paint4_linear_425_217" x1="224.401" y1="113.496" x2="208.514" y2="125.442" gradientUnits="userSpaceOnUse">
<stop stop-color="#63A6F9"/>
<stop offset="1" stop-color="#92C1FC"/>
</linearGradient>
<linearGradient id="paint5_linear_425_217" x1="223.781" y1="112.671" x2="207.908" y2="124.62" gradientUnits="userSpaceOnUse">
<stop stop-color="#63A6F9"/>
<stop offset="1" stop-color="#92C1FC"/>
</linearGradient>
<clipPath id="clip0_425_217">
<rect width="80" height="80" fill="white" transform="translate(98 68)"/>
</clipPath>
</defs>
</svg>
