<svg width="290" height="188" viewBox="0 0 290 188" fill="none" xmlns="http://www.w3.org/2000/svg">
<g id="Group 326">
<path id="Vector" d="M290 148C290 170.091 225.082 188 145 188C64.9183 188 0 170.091 0 148C0 125.909 64.9183 108 145 108C225.082 108 290 125.909 290 148Z" fill="url(#paint0_linear_425_150)"/>
<path id="Vector_2" d="M59.5459 19.1547C61.8209 15.2991 66.852 12.386 77.5857 14.4567C77.5857 14.4567 94.7286 -16.1279 121.603 11.674C121.603 11.674 137.638 7.84345 141.727 19.962C143.511 25.3318 140.745 31.1529 135.458 33.1585C121.673 38.4531 90.0633 47.6987 63.8705 33.6899C58.6389 30.8872 56.5243 24.2839 59.5459 19.1547Z" fill="url(#paint1_linear_425_150)"/>
<path id="Vector_3" d="M1.122 92.6581C2.96106 89.5445 7.02001 87.193 15.7042 88.8626C15.7042 88.8626 29.5447 64.1643 51.2376 86.6164C51.2376 86.6164 64.1661 83.5278 67.4885 93.3099C68.9116 97.6419 66.6767 102.33 62.4123 103.944C51.2827 108.216 25.7664 115.662 4.61971 104.37C0.390381 102.129 -1.31839 96.7995 1.122 92.6581Z" fill="url(#paint2_linear_425_150)"/>
<path id="Vector_4" d="M218.781 40.4341C220.685 37.3856 224.899 35.0843 233.914 36.7188C233.914 36.7188 248.276 12.5168 270.791 34.5177C270.791 34.5177 284.205 31.5094 287.653 41.0758C289.156 45.3076 286.816 49.9103 282.396 51.5097C270.871 55.7013 244.362 62.9965 222.419 51.9309C218.019 49.7147 216.25 44.4953 218.781 40.4341Z" fill="url(#paint3_linear_425_150)"/>
<path id="Vector_5" d="M177.24 125.953C177.24 125.953 185.141 107.775 202.77 101.13L206.565 104.379L205.003 100.129C205.003 100.129 217.689 94.749 223.23 100.566C226.342 103.83 221.257 113.243 209.137 124.728L205.596 123.246L207.518 126.785C207.518 126.785 199.142 139.128 186.576 138.594L181.311 132.828L177.24 125.953Z" fill="url(#paint4_linear_425_150)"/>
<g id="Vector_6">
<path d="M181.315 132.828C180.919 133.144 183.884 129.625 188.742 124.768C196.486 117.03 209.403 104.578 223.234 100.562" fill="url(#paint5_linear_425_150)"/>
<path d="M181.315 132.828C180.919 133.144 183.884 129.625 188.742 124.768C196.486 117.03 209.403 104.578 223.234 100.562" stroke="#AAD0FF" stroke-width="1.74" stroke-linecap="round"/>
</g>
<path id="Vector_7" d="M203.222 111.881C203.222 111.881 209.991 110.477 213.909 115.623" stroke="#AAD0FF" stroke-width="1.74" stroke-linecap="round"/>
<path id="Vector_8" d="M201.71 130.788C196.409 123.257 189.29 124.302 189.29 124.302" stroke="#AAD0FF" stroke-width="1.74" stroke-linecap="round"/>
<path id="Vector_9" d="M192.696 121.029C192.696 121.029 199.538 113.484 200.728 103.986" stroke="#AAD0FF" stroke-width="1.74" stroke-linecap="round"/>
<path id="Vector_10" d="M231.048 120.406C231.048 120.406 218.033 148.619 187.633 142.636L183.303 132.978C183.303 132.978 226.431 124.742 231.048 120.406Z" fill="#AAD0FF"/>
<path id="Vector_11" d="M183.302 132.977C183.302 132.977 193.617 124.104 211.499 123.266C211.499 123.266 225.287 123.459 231.048 120.399C231.048 120.399 222.567 127.654 209.197 127.711C209.197 127.711 210.215 128.945 218.587 128.323C218.587 128.323 204.611 138.356 186.526 136.852L183.302 132.977Z" fill="#63A6F9"/>
<path id="Vector_12" d="M192.385 36.6482H187.469V31.3736C187.469 30.5362 186.793 29.8594 185.956 29.8594C185.114 29.8594 184.437 30.5362 184.437 31.3736V36.6482H179.522C178.91 36.6482 178.414 37.1445 178.414 37.7562C178.414 38.3679 178.91 38.8643 179.522 38.8643H184.437V44.1389C184.437 44.9762 185.114 45.6531 185.956 45.6531C186.793 45.6531 187.469 44.9762 187.469 44.1389V38.8643H192.385C192.996 38.8643 193.492 38.3679 193.492 37.7562C193.492 37.1445 192.996 36.6482 192.385 36.6482Z" fill="#63A6F9"/>
<path id="Vector_13" d="M48.5151 107.49C49.6677 107.49 50.7049 108.182 51.1509 109.245C51.5919 110.313 51.3464 111.536 50.5346 112.354C49.7178 113.166 48.4951 113.412 47.4277 112.97C46.3654 112.524 45.6738 111.486 45.6738 110.333C45.6789 108.764 46.9467 107.495 48.5151 107.49ZM48.5151 103.98C45.9444 103.98 43.6243 105.525 42.6422 107.901C41.655 110.278 42.2012 113.015 44.0152 114.835C45.8342 116.651 48.5702 117.197 50.9455 116.209C53.3207 115.227 54.8641 112.905 54.8641 110.333C54.8641 106.823 52.0229 103.98 48.5151 103.98Z" fill="#63A6F9"/>
<path id="Vector_14" d="M248.579 109.961C249.731 109.961 250.769 110.653 251.21 111.716C251.656 112.779 251.41 114.007 250.598 114.819C249.786 115.637 248.559 115.882 247.496 115.441C246.429 115 245.737 113.962 245.737 112.809C245.737 111.239 247.01 109.966 248.579 109.961ZM248.579 106.451C246.008 106.451 243.688 107.995 242.706 110.372C241.719 112.749 242.26 115.481 244.079 117.301C245.898 119.121 248.629 119.668 251.004 118.685C253.379 117.697 254.928 115.381 254.928 112.809C254.928 109.299 252.086 106.456 248.579 106.451Z" fill="#63A6F9"/>
<path id="Vector_15" d="M165.768 75.5841C164.493 75.8815 163.155 75.733 161.977 75.1635C148.513 68.7783 133.268 67.1743 118.76 70.6165C104.252 74.0587 91.3499 82.3411 82.1851 94.0954C81.1982 95.096 79.8796 95.7023 78.4772 95.8002C77.0749 95.8981 75.6855 95.4808 74.5703 94.6268C73.4551 93.7728 72.6911 92.541 72.4218 91.163C72.1525 89.785 72.3966 88.3558 73.1081 87.1441C83.8857 73.3264 99.0556 63.5901 116.113 59.5431C133.17 55.496 151.094 57.3802 166.925 64.8846C167.995 65.3986 168.881 66.2306 169.459 67.2669C170.038 68.3033 170.282 69.4932 170.158 70.6739C170.033 71.8546 169.547 72.9683 168.765 73.8627C167.983 74.7571 166.943 75.3884 165.789 75.6703L165.768 75.5841ZM99.4729 107.612C105.572 99.7954 114.155 94.2881 123.805 91.9985C133.455 89.7089 143.595 90.7738 152.552 95.0176C153.238 95.4612 154.01 95.7539 154.818 95.8765C155.626 95.9991 156.451 95.9487 157.238 95.7287C158.025 95.5087 158.756 95.124 159.383 94.6003C160.011 94.0765 160.519 93.4257 160.876 92.6908C161.232 91.956 161.428 91.1539 161.451 90.3379C161.474 89.5218 161.323 88.7105 161.007 87.9575C160.692 87.2046 160.22 86.5273 159.623 85.9706C159.026 85.4139 158.317 84.9905 157.543 84.7285C146.219 79.3655 133.4 78.0203 121.201 80.9148C109.001 83.8093 98.1508 90.7705 90.4389 100.65C89.755 101.857 89.5294 103.269 89.8036 104.627C90.0777 105.986 90.8332 107.2 91.9314 108.046C93.0297 108.892 94.3969 109.314 95.7821 109.234C97.1674 109.155 98.4778 108.578 99.4729 107.612ZM150.711 112.253C151.038 111.569 151.227 110.828 151.266 110.071C151.306 109.314 151.195 108.558 150.941 107.844C150.688 107.13 150.295 106.474 149.787 105.912C149.279 105.35 148.664 104.894 147.979 104.57C141.199 101.279 133.486 100.432 126.148 102.173C118.81 103.914 112.298 108.136 107.716 114.123C107.005 115.335 106.761 116.764 107.03 118.142C107.299 119.52 108.064 120.752 109.179 121.606C110.294 122.46 111.683 122.877 113.086 122.779C114.488 122.681 115.807 122.075 116.794 121.074C119.799 117.198 124.041 114.466 128.815 113.333C133.589 112.201 138.606 112.736 143.031 114.849C143.715 115.175 144.458 115.363 145.215 115.401C145.972 115.44 146.73 115.329 147.444 115.075C148.159 114.821 148.817 114.429 149.379 113.921C149.942 113.412 150.399 112.798 150.724 112.113L150.711 112.253ZM130.717 121.549C129.061 121.942 127.559 122.817 126.4 124.062C125.241 125.308 124.477 126.868 124.206 128.546C123.934 130.225 124.167 131.945 124.874 133.49C125.582 135.036 126.732 136.336 128.18 137.228C129.628 138.12 131.309 138.562 133.009 138.499C134.709 138.437 136.354 137.872 137.733 136.876C139.113 135.88 140.167 134.498 140.761 132.905C141.355 131.311 141.462 129.578 141.071 127.925C140.831 126.814 140.374 125.762 139.725 124.829C139.076 123.896 138.249 123.102 137.29 122.491C136.331 121.88 135.261 121.465 134.141 121.271C133.02 121.076 131.872 121.105 130.762 121.357L130.717 121.549Z" fill="#4C9BFD"/>
<path id="Vector_16" d="M165.924 72.1999C164.649 72.4972 163.309 72.3422 162.128 71.7606C148.632 65.2401 133.369 63.5623 118.861 67.0045C104.354 70.4467 91.4691 78.8029 82.3364 90.6925C81.352 91.704 80.0344 92.3145 78.6312 92.409C77.2281 92.5036 75.8362 92.0757 74.7173 91.2059C73.5984 90.3361 72.8296 89.0843 72.5555 87.6859C72.2814 86.2876 72.5208 84.839 73.2288 83.6126C83.9688 69.6358 99.1181 59.8128 116.175 55.7657C133.232 51.7187 151.177 53.6896 167.045 61.3531C168.119 61.8779 169.008 62.7247 169.59 63.7776C170.173 64.8305 170.421 66.0381 170.301 67.235C170.18 68.432 169.697 69.5598 168.917 70.4642C168.137 71.3686 167.099 72.0054 165.945 72.2874L165.924 72.1999ZM99.6831 104.458C105.761 96.5516 114.332 90.9952 123.982 88.7055C133.632 86.4159 143.784 87.5299 152.762 91.8637C153.45 92.3158 154.224 92.6153 155.033 92.7424C155.842 92.8694 156.667 92.8211 157.454 92.6006C158.241 92.3801 158.972 91.9925 159.598 91.4634C160.224 90.9344 160.731 90.276 161.085 89.532C161.439 88.7879 161.633 87.9752 161.653 87.1477C161.673 86.3202 161.519 85.4969 161.201 84.7322C160.883 83.9676 160.408 83.2792 159.809 82.7126C159.209 82.146 158.498 81.7143 157.723 81.4459C146.372 75.9692 133.538 74.5621 121.339 77.4565C109.139 80.351 98.3036 87.3742 90.6187 97.3675C89.9383 98.5888 89.7172 100.02 89.9961 101.399C90.2751 102.777 91.0353 104.011 92.1372 104.873C93.2391 105.735 94.6088 106.167 95.9949 106.091C97.381 106.015 98.6905 105.435 99.6831 104.458ZM150.978 109.336C151.303 108.644 151.489 107.893 151.526 107.125C151.563 106.358 151.45 105.59 151.193 104.866C150.937 104.141 150.542 103.474 150.031 102.903C149.521 102.331 148.904 101.867 148.218 101.536C141.421 98.1756 133.699 97.2909 126.361 99.032C119.023 100.773 112.52 105.033 107.955 111.089C107.247 112.315 107.008 113.764 107.282 115.162C107.556 116.561 108.325 117.812 109.444 118.682C110.562 119.552 111.954 119.98 113.357 119.885C114.761 119.791 116.078 119.18 117.063 118.169C120.057 114.248 124.294 111.492 129.068 110.359C133.842 109.226 138.865 109.785 143.3 111.944C143.986 112.276 144.729 112.469 145.488 112.511C146.246 112.553 147.004 112.443 147.718 112.188C148.432 111.932 149.089 111.537 149.65 111.023C150.212 110.51 150.667 109.888 150.99 109.195L150.978 109.336ZM130.999 118.697C129.343 119.09 127.842 119.972 126.687 121.231C125.531 122.49 124.772 124.07 124.506 125.771C124.24 127.472 124.478 129.218 125.191 130.787C125.905 132.357 127.06 133.68 128.512 134.589C129.965 135.498 131.648 135.952 133.349 135.894C135.051 135.837 136.694 135.269 138.072 134.264C139.45 133.259 140.499 131.861 141.088 130.247C141.678 128.633 141.78 126.876 141.382 125.197C141.139 124.07 140.678 123.002 140.025 122.053C139.373 121.105 138.542 120.297 137.58 119.674C136.619 119.051 135.546 118.627 134.424 118.426C133.302 118.225 132.153 118.25 131.044 118.502L130.999 118.697Z" fill="#92C1FC"/>
<path id="Vector 346" d="M108.82 54.2014L131.369 118.694L126.641 50.0283L108.82 54.2014Z" fill="white"/>
</g>
<defs>
<linearGradient id="paint0_linear_425_150" x1="145" y1="108" x2="145" y2="187.998" gradientUnits="userSpaceOnUse">
<stop stop-color="#92C1FC" stop-opacity="0.2"/>
<stop offset="0.649" stop-color="#187FC4" stop-opacity="0"/>
</linearGradient>
<linearGradient id="paint1_linear_425_150" x1="100.226" y1="-0.00325482" x2="100.226" y2="41.0754" gradientUnits="userSpaceOnUse">
<stop offset="0.03" stop-color="#92C1FC" stop-opacity="0.4"/>
<stop offset="0.25" stop-color="#92C1FC" stop-opacity="0.2"/>
<stop offset="0.8" stop-color="#187FC4" stop-opacity="0"/>
</linearGradient>
<linearGradient id="paint2_linear_425_150" x1="33.9645" y1="77.1903" x2="33.9645" y2="110.352" gradientUnits="userSpaceOnUse">
<stop offset="0.03" stop-color="#92C1FC" stop-opacity="0.4"/>
<stop offset="0.25" stop-color="#92C1FC" stop-opacity="0.2"/>
<stop offset="0.8" stop-color="#187FC4" stop-opacity="0"/>
</linearGradient>
<linearGradient id="paint3_linear_425_150" x1="252.866" y1="25.2822" x2="252.866" y2="57.772" gradientUnits="userSpaceOnUse">
<stop offset="0.03" stop-color="#92C1FC" stop-opacity="0.4"/>
<stop offset="0.25" stop-color="#92C1FC" stop-opacity="0.2"/>
<stop offset="0.8" stop-color="#187FC4" stop-opacity="0"/>
</linearGradient>
<linearGradient id="paint4_linear_425_150" x1="214.676" y1="106.927" x2="195.111" y2="121.639" gradientUnits="userSpaceOnUse">
<stop stop-color="#63A6F9"/>
<stop offset="1" stop-color="#92C1FC"/>
</linearGradient>
<linearGradient id="paint5_linear_425_150" x1="213.907" y1="105.91" x2="194.357" y2="120.626" gradientUnits="userSpaceOnUse">
<stop stop-color="#63A6F9"/>
<stop offset="1" stop-color="#92C1FC"/>
</linearGradient>
</defs>
</svg>
