<svg width="290" height="188" viewBox="0 0 290 188" fill="none" xmlns="http://www.w3.org/2000/svg">
<g id="Group 330">
<path id="Vector" d="M290 148C290 170.091 225.082 188 145 188C64.9183 188 0 170.091 0 148C0 125.909 64.9183 108 145 108C225.082 108 290 125.909 290 148Z" fill="url(#paint0_linear_427_34)"/>
<path id="Vector_2" d="M59.5459 19.1547C61.8209 15.2991 66.852 12.386 77.5857 14.4567C77.5857 14.4567 94.7286 -16.1279 121.603 11.674C121.603 11.674 137.638 7.84345 141.727 19.962C143.511 25.3318 140.745 31.1529 135.458 33.1585C121.673 38.4531 90.0633 47.6987 63.8705 33.6899C58.6389 30.8872 56.5243 24.2839 59.5459 19.1547Z" fill="url(#paint1_linear_427_34)"/>
<path id="Vector_3" d="M1.122 92.6581C2.96106 89.5445 7.02001 87.193 15.7042 88.8626C15.7042 88.8626 29.5447 64.1643 51.2376 86.6164C51.2376 86.6164 64.1661 83.5278 67.4885 93.3099C68.9116 97.6419 66.6767 102.33 62.4123 103.944C51.2827 108.216 25.7664 115.662 4.61971 104.37C0.390381 102.129 -1.31839 96.7995 1.122 92.6581Z" fill="url(#paint2_linear_427_34)"/>
<path id="Vector_4" d="M218.781 40.4341C220.685 37.3856 224.899 35.0843 233.914 36.7188C233.914 36.7188 248.276 12.5168 270.791 34.5177C270.791 34.5177 284.205 31.5094 287.653 41.0758C289.156 45.3076 286.816 49.9103 282.396 51.5097C270.871 55.7013 244.362 62.9965 222.419 51.9309C218.019 49.7147 216.25 44.4953 218.781 40.4341Z" fill="url(#paint3_linear_427_34)"/>
<path id="Vector_5" d="M194.004 128.944C194.004 128.944 200.419 114.185 214.734 108.789L217.814 111.427L216.546 107.977C216.546 107.977 226.847 103.608 231.345 108.331C233.873 110.982 229.744 118.624 219.903 127.949L217.028 126.746L218.588 129.62C218.588 129.62 211.787 139.642 201.585 139.209L197.309 134.527L194.004 128.944Z" fill="url(#paint4_linear_427_34)"/>
<g id="Vector_6">
<path d="M197.318 134.527C196.996 134.783 199.404 131.926 203.348 127.982C209.636 121.699 220.125 111.589 231.355 108.328" fill="url(#paint5_linear_427_34)"/>
<path d="M197.318 134.527C196.996 134.783 199.404 131.926 203.348 127.982C209.636 121.699 220.125 111.589 231.355 108.328" stroke="#AAD0FF" stroke-width="1.74" stroke-linecap="round"/>
</g>
<path id="Vector_7" d="M215.107 117.518C215.107 117.518 220.603 116.379 223.784 120.557" stroke="#AAD0FF" stroke-width="1.74" stroke-linecap="round"/>
<path id="Vector_8" d="M213.879 132.87C209.575 126.756 203.794 127.604 203.794 127.604" stroke="#AAD0FF" stroke-width="1.74" stroke-linecap="round"/>
<path id="Vector_9" d="M206.554 124.946C206.554 124.946 212.11 118.82 213.076 111.108" stroke="#AAD0FF" stroke-width="1.74" stroke-linecap="round"/>
<path id="Vector_10" d="M237.698 124.441C237.698 124.441 227.13 147.348 202.447 142.491L198.93 134.649C198.93 134.649 233.949 127.962 237.698 124.441Z" fill="#AAD0FF"/>
<path id="Vector_11" d="M198.93 134.647C198.93 134.647 207.306 127.443 221.825 126.762C221.825 126.762 233.02 126.919 237.698 124.434C237.698 124.434 230.811 130.325 219.955 130.371C219.955 130.371 220.782 131.373 227.58 130.868C227.58 130.868 216.232 139.015 201.548 137.794L198.93 134.647Z" fill="#63A6F9"/>
<path id="Vector_12" d="M192.385 36.6482H187.469V31.3736C187.469 30.5362 186.793 29.8594 185.956 29.8594C185.114 29.8594 184.437 30.5362 184.437 31.3736V36.6482H179.522C178.91 36.6482 178.414 37.1445 178.414 37.7562C178.414 38.3679 178.91 38.8643 179.522 38.8643H184.437V44.1389C184.437 44.9762 185.114 45.6531 185.956 45.6531C186.793 45.6531 187.469 44.9762 187.469 44.1389V38.8643H192.385C192.996 38.8643 193.492 38.3679 193.492 37.7562C193.492 37.1445 192.996 36.6482 192.385 36.6482Z" fill="#63A6F9"/>
<path id="Vector_13" d="M48.5151 107.49C49.6677 107.49 50.7049 108.182 51.1509 109.245C51.5919 110.313 51.3464 111.536 50.5346 112.354C49.7178 113.166 48.4951 113.412 47.4277 112.97C46.3654 112.524 45.6738 111.486 45.6738 110.333C45.6789 108.764 46.9467 107.495 48.5151 107.49ZM48.5151 103.98C45.9444 103.98 43.6243 105.525 42.6422 107.901C41.655 110.278 42.2012 113.015 44.0152 114.835C45.8342 116.651 48.5702 117.197 50.9455 116.209C53.3207 115.227 54.8641 112.905 54.8641 110.333C54.8641 106.823 52.0229 103.98 48.5151 103.98Z" fill="#63A6F9"/>
<path id="Vector_14" d="M248.579 109.961C249.731 109.961 250.769 110.653 251.21 111.716C251.656 112.779 251.41 114.007 250.598 114.819C249.786 115.637 248.559 115.882 247.496 115.441C246.429 115 245.737 113.962 245.737 112.809C245.737 111.239 247.01 109.966 248.579 109.961ZM248.579 106.451C246.008 106.451 243.688 107.995 242.706 110.372C241.719 112.749 242.26 115.481 244.079 117.301C245.898 119.121 248.629 119.668 251.004 118.685C253.379 117.697 254.928 115.381 254.928 112.809C254.928 109.299 252.086 106.456 248.579 106.451Z" fill="#63A6F9"/>
<g id="Group 504">
<path id="Vector_15" d="M100.613 141.891C99.765 141.891 98.9828 142.473 98.5588 143.418C98.3494 143.9 98.2413 144.42 98.2413 144.945C98.2413 145.471 98.3494 145.991 98.5588 146.473C98.9828 147.418 99.765 148 100.613 148H119.577C120.425 148 121.207 147.418 121.631 146.473C121.84 145.991 121.948 145.471 121.948 144.945C121.948 144.42 121.84 143.9 121.631 143.418C121.207 142.473 120.425 141.891 119.577 141.891H100.613ZM161.115 65.5088C165.386 65.5088 168.865 69.0104 169.012 73.3844L169.017 73.6713L169.018 100.019C163.425 94.087 155.607 90.4025 146.954 90.4025C129.951 90.4025 116.167 104.63 116.167 122.182C116.167 125.186 116.571 128.093 117.326 130.847H107.567C107.154 130.847 106.742 130.832 106.331 130.803H97.8996C93.6292 130.803 90.1493 127.301 90.0036 122.927L90 122.64V73.6713C90 69.259 93.3891 65.6642 97.625 65.5136L97.902 65.5088H161.115Z" fill="#92C1FC"/>
<path id="Vector_16" d="M169.131 121.57C169.131 108.297 158.7 97.5361 145.831 97.5361C132.963 97.5361 122.531 108.296 122.531 121.57C122.531 134.843 132.963 145.604 145.831 145.604C158.7 145.604 169.131 134.844 169.131 121.57Z" fill="#63A6F9"/>
<path id="Vector_17" d="M138.362 117.608H152.79C153.211 117.608 153.628 117.694 154.017 117.86C154.406 118.025 154.759 118.268 155.057 118.575C155.355 118.881 155.591 119.245 155.752 119.645C155.913 120.046 155.996 120.475 155.996 120.908V130.807C155.996 131.682 155.658 132.521 155.057 133.14C154.456 133.759 153.64 134.107 152.79 134.107H138.362C137.512 134.107 136.697 133.759 136.095 133.14C135.494 132.521 135.156 131.682 135.156 130.807V120.908C135.156 120.475 135.239 120.046 135.4 119.645C135.561 119.245 135.798 118.881 136.095 118.575C136.393 118.268 136.746 118.025 137.135 117.86C137.524 117.694 137.941 117.608 138.362 117.608ZM144.775 126.542V129.982C144.775 130.201 144.859 130.411 145.009 130.565C145.16 130.72 145.364 130.807 145.576 130.807C145.789 130.807 145.993 130.72 146.143 130.565C146.293 130.411 146.378 130.201 146.378 129.982V126.542C146.913 126.348 147.364 125.965 147.651 125.461C147.938 124.957 148.043 124.365 147.947 123.79C147.851 123.214 147.56 122.692 147.127 122.315C146.693 121.939 146.144 121.733 145.576 121.733C145.009 121.733 144.46 121.939 144.026 122.315C143.592 122.692 143.301 123.214 143.205 123.79C143.109 124.365 143.214 124.957 143.502 125.461C143.789 125.965 144.24 126.348 144.775 126.542Z" fill="white"/>
<path id="Vector_18" d="M145.572 109.794C146.484 109.794 147.387 109.959 148.23 110.279C149.073 110.599 149.839 111.068 150.484 111.659C151.129 112.25 151.64 112.952 151.989 113.725C152.339 114.497 152.518 115.325 152.518 116.162V119.346H138.625V116.162C138.625 114.473 139.357 112.853 140.66 111.659C141.962 110.465 143.729 109.794 145.572 109.794ZM150.782 117.754V116.162C150.782 114.895 150.233 113.68 149.256 112.785C148.279 111.889 146.953 111.386 145.572 111.386C144.19 111.386 142.865 111.889 141.888 112.785C140.911 113.68 140.362 114.895 140.362 116.162V117.754H150.782Z" fill="white"/>
</g>
</g>
<defs>
<linearGradient id="paint0_linear_427_34" x1="145" y1="108" x2="145" y2="187.998" gradientUnits="userSpaceOnUse">
<stop stop-color="#92C1FC" stop-opacity="0.2"/>
<stop offset="0.649" stop-color="#187FC4" stop-opacity="0"/>
</linearGradient>
<linearGradient id="paint1_linear_427_34" x1="100.226" y1="-0.00325482" x2="100.226" y2="41.0754" gradientUnits="userSpaceOnUse">
<stop offset="0.03" stop-color="#92C1FC" stop-opacity="0.4"/>
<stop offset="0.25" stop-color="#92C1FC" stop-opacity="0.2"/>
<stop offset="0.8" stop-color="#187FC4" stop-opacity="0"/>
</linearGradient>
<linearGradient id="paint2_linear_427_34" x1="33.9645" y1="77.1903" x2="33.9645" y2="110.352" gradientUnits="userSpaceOnUse">
<stop offset="0.03" stop-color="#92C1FC" stop-opacity="0.4"/>
<stop offset="0.25" stop-color="#92C1FC" stop-opacity="0.2"/>
<stop offset="0.8" stop-color="#187FC4" stop-opacity="0"/>
</linearGradient>
<linearGradient id="paint3_linear_427_34" x1="252.866" y1="25.2822" x2="252.866" y2="57.772" gradientUnits="userSpaceOnUse">
<stop offset="0.03" stop-color="#92C1FC" stop-opacity="0.4"/>
<stop offset="0.25" stop-color="#92C1FC" stop-opacity="0.2"/>
<stop offset="0.8" stop-color="#187FC4" stop-opacity="0"/>
</linearGradient>
<linearGradient id="paint4_linear_427_34" x1="224.401" y1="113.496" x2="208.514" y2="125.442" gradientUnits="userSpaceOnUse">
<stop stop-color="#63A6F9"/>
<stop offset="1" stop-color="#92C1FC"/>
</linearGradient>
<linearGradient id="paint5_linear_427_34" x1="223.781" y1="112.671" x2="207.908" y2="124.62" gradientUnits="userSpaceOnUse">
<stop stop-color="#63A6F9"/>
<stop offset="1" stop-color="#92C1FC"/>
</linearGradient>
</defs>
</svg>
